# xmcd CD database file
#
# Track frame offsets:
#	150
#	12744
#	28560
#	42803
#	56556
#	69318
#
# Disc length: 1095 seconds
#
# Revision: 0
# Processed by: cddbd v1.5PL3 Copyright (c) Steve Scherf et al.
# Submitted via: CDex 1.50beta10
#
DISCID=48044506
DTITLE=南沙織 - １７才
DYEAR=1900
DGENRE=JPop
TTITLE0=１７才
TTITLE1=潮風のメロディ
TTITLE2=ともだち
TTITLE3=純潔
TTITLE4=哀愁のページ
TTITLE5=早春の港
EXTD=
EXTT0=
EXTT1=
EXTT2=
EXTT3=
EXTT4=
EXTT5=
PLAYORDER=
